# xmcd
#
# Track frame offsets:
#	150
#	15787
#	36732
#	54620
#	69934
#	86303
#	107443
#	125627
#	139317
#	160510
#	177296
#	195700
#	212365
#	229203
#	243021
#	257677
#	276035
#	296430
#	314389
#
# Disc length: 4395 seconds
#
# Revision: 0
# Processed by: cddbd v1.5.2PL0 Copyright (c) Steve Scherf et al.
# Submitted via: EasyCDDAExtractor 16.0.9.1
#
DISCID=00112913
DTITLE=Hott Urban Volume 7 CAN
DYEAR=2015
DGENRE=blues
TTITLE0=Drake and Future - Jumpman
TTITLE1=DJ Khaled ft. Chris Brown, August Alsina and Fetty Wap - Gold Slugs
TTITLE2=Jeremih - Oui
TTITLE3=Adrian Marcel - Take Your Time
TTITLE4=K Camp ft. Fetty Wap - 1Hunnid
TTITLE5=Colonel Loud ft T.I. and Young Dolph - California
TTITLE6=DJ Khaled ft. Trey Songz, Jeremih and Future - You Mine
TTITLE7=iLoveMemphis - Hit The Quan
TTITLE8=Rick Ross ft. Chris Brown - Sorry
TTITLE9=Puff Daddy and The Family ft. Pharrell Williams - Finna Get Loose
TTITLE10=Boogie - Oh My
TTITLE11=2 Milly - Milly Rock
TTITLE12=Jeezy ft. Janelle Monae - Sweet Life
TTITLE13=Yo Gotti - Down In The DM
TTITLE14=TK N Cash - 3 Times In A Row
TTITLE15=Blac Youngsta ft. Yo Gotti - Heavy
TTITLE16=August Alsina - Song Cry
TTITLE17=Lipstick Gypsy - Infatuation
TTITLE18=R. Kelly ft. Jeremih and Lil Wayne - Switch Up
EXTD=
EXTT0=
EXTT1=
EXTT2=
EXTT3=
EXTT4=
EXTT5=
EXTT6=
EXTT7=
EXTT8=
EXTT9=
EXTT10=
EXTT11=
EXTT12=
EXTT13=
EXTT14=
EXTT15=
EXTT16=
EXTT17=
EXTT18=
PLAYORDER=
